<?xml version="1.0" encoding="UTF-8" standalone="no" ?>
<!DOCTYPE svg PUBLIC "-//W3C//DTD SVG 1.1//EN" "http://www.w3.org/Graphics/SVG/1.1/DTD/svg11.dtd">
<svg width="100%" height="100%" viewBox="0 0 719 310" version="1.1" xmlns="http://www.w3.org/2000/svg" xmlns:xlink="http://www.w3.org/1999/xlink" xml:space="preserve" xmlns:serif="http://www.serif.com/" style="fill-rule:evenodd;clip-rule:evenodd;stroke-linecap:round;stroke-linejoin:round;stroke-miterlimit:1.5;">
  <g>
    <g id="_961" serif:id="961">
      <path d="M673.813,230.23c14.237,-5.531 22.854,-12.743 28.161,-23.123l0,101.145" style="fill:none;stroke:#fff;stroke-width:3px;" />
      <g>
        <path d="M559.734,308.252c19.686,-32.01 40.373,-55.152 41.419,-69.709c0.071,-0.985 0.091,-3.845 -0.045,-5.434" style="fill:none;stroke:#fff;stroke-width:3px;" />
        <ellipse cx="572.006" cy="235.35" rx="29.203" ry="29.466" style="fill:none;stroke:#fff;stroke-width:3px;" />
      </g>
      <g>
        <path d="M650.189,205.884c-19.687,32.01 -40.374,55.152 -41.42,69.709c-0.071,0.986 -0.091,3.845 0.045,5.435" style="fill:none;stroke:#fff;stroke-width:3px;" />
        <ellipse cx="637.916" cy="278.786" rx="29.203" ry="29.466" style="fill:none;stroke:#fff;stroke-width:3px;" />
      </g>
    </g>
    <g>
      <g>
        <path d="M623.478,166.323l-4.012,-14.623l-13.989,4.299l4.012,14.624l13.989,-4.3Z" style="fill:#eb1414;" />
        <path d="M597.248,148.507l10.094,-18.863l-17.942,-10.447l-10.094,18.863l17.942,10.447Z" style="fill:#c41a61;" />
        <path d="M574.359,93.193l5.563,-20.799l-19.82,-5.688l-5.563,20.798l19.82,5.689Z" style="fill:#aa1f94;" />
        <path d="M614.017,91.486l-6.846,-8.261l-8.03,6.412l6.846,8.262l8.03,-6.413Z" style="fill:#aa1f94;" />
        <path d="M536.967,63.945l9.001,-19.455l-18.515,-9.298l-9.001,19.454l18.515,9.299Z" style="fill:#7e26ec;" />
        <path d="M569.387,59.727l5.922,-12.799l-12.181,-6.118l-5.922,12.8l12.181,6.117Z" style="fill:#7e26ec;" />
        <path d="M490.682,29.031l-2.181,-16.549l-15.815,2.395l2.181,16.549l15.815,-2.395Z" style="fill:#0f28ab;" />
        <path d="M523.524,29.389l-1.341,-10.17l-9.719,1.472l1.341,10.17l9.719,-1.472Z" style="fill:#0f28ab;" />
        <path d="M442.336,51.55l0,-0.001c0.746,0.054 1.49,0.113 2.232,0.179l-1.769,-6.642l19.831,-5.924l4.401,16.519c4.246,1.133 8.403,2.471 12.461,4.002l-1.293,-9.811l20.393,-3.089l2.813,21.34l-3.031,0.46c2.984,1.708 5.893,3.529 8.723,5.456l-0.012,-0.668l20.583,-0.541l0.332,18.848c5.554,5.758 10.589,12.013 15.038,18.683l-0.045,-1.589l20.619,-0.218l0.617,21.521l-10.268,0.108c4.456,10.008 7.717,20.643 9.61,31.708l14.926,7.054l-9.997,19.587l-3.489,-1.649c-1.265,4.042 -5.142,6.858 -9.533,6.631l-0.002,0.002l-0.003,-0.002c-0.062,-0.004 -0.123,-0.007 -0.185,-0.012c-4.866,-0.348 -8.614,-4.319 -8.794,-9.085c-0.018,-0.097 -0.027,-0.191 -0.028,-0.281c-0.253,-58.683 -45.661,-108.247 -105.081,-112.743c-0.157,-0.004 -0.314,-0.012 -0.472,-0.023c-5.476,-0.392 -9.605,-5.151 -9.213,-10.621c0.392,-5.469 5.156,-9.591 10.632,-9.199l0.004,0Z" style="fill:url(#_Linear1);" />
      </g>
      <path d="M459.397,15.705l2.437,-12.77l-11.341,-2.726l-2.437,12.771l11.341,2.725Z" style="fill:#0093f5;" />
      <path d="M547.117,15.906l2.438,-12.771l-11.341,-2.726l-2.438,12.771l11.341,2.726Z" style="fill:#0093f5;" />
      <path d="M629.971,131.874l3.89,-13.707l-12.257,-4.784l-3.891,13.707l12.258,4.784Z" style="fill:#d91dec;" />
      <path d="M598.468,54.176l3.89,-13.707l-12.257,-4.784l-3.89,13.707l12.257,4.784Z" style="fill:#d91dec;" />
    </g>
    <g>
      <path d="M373.125,121.422c0,31.564 0.813,148.166 0.624,176.681c-0.101,15.349 32.137,15.678 35.061,0.408c1.796,-9.383 1.55,-40.124 1.608,-55.28c24.153,16.575 48.061,18.569 74.066,5.832c25.236,-12.339 35.476,-38.148 35.766,-69.796c-2.18,-34.66 -18.16,-62.992 -52.755,-70.547c-22.175,-3.69 -42.827,0.537 -57.677,16.16c-5.892,-20.268 -30.961,-17.564 -36.693,-3.458Zm73.084,18.192c21.125,0 38.275,19.581 38.275,43.7c0,24.118 -17.15,43.7 -38.275,43.7c-21.126,0 -38.276,-19.582 -38.276,-43.7c0,-24.119 17.15,-43.7 38.276,-43.7Z" style="fill:#cd194f;" />
      <path d="M270.076,107.471c38.722,0 70.159,34.818 70.159,77.703c0,42.886 -31.437,77.703 -70.159,77.703c-38.721,0 -70.158,-34.817 -70.158,-77.703c0,-42.885 31.437,-77.703 70.158,-77.703Zm0,34.003c21.126,0 38.276,19.582 38.276,43.7c0,24.119 -17.15,43.7 -38.276,43.7c-21.125,0 -38.275,-19.581 -38.275,-43.7c0,-24.118 17.15,-43.7 38.275,-43.7Z" style="fill:#cd194f;" />
      <path d="M19.901,121.422c0,31.564 0.813,148.166 0.624,176.681c-0.101,15.349 32.137,15.678 35.061,0.408c1.796,-9.383 1.55,-40.124 1.608,-55.28c24.153,16.575 48.061,18.569 74.067,5.832c25.235,-12.339 35.475,-38.148 35.765,-69.796c-2.18,-34.66 -18.16,-62.992 -52.755,-70.547c-22.175,-3.69 -42.827,0.537 -57.677,16.16c-5.892,-20.268 -30.961,-17.564 -36.693,-3.458Zm73.084,18.192c21.125,0 38.276,19.581 38.276,43.7c0,24.118 -17.151,43.7 -38.276,43.7c-21.125,0 -38.276,-19.582 -38.276,-43.7c0,-24.119 17.151,-43.7 38.276,-43.7Z" style="fill:#cd194f;" />
    </g>
  </g>
  <defs>
    <linearGradient id="_Linear1" x1="0" y1="0" x2="1" y2="0" gradientUnits="userSpaceOnUse" gradientTransform="matrix(-102.646,-135.942,147.2,-111.147,563.836,178.436)">
      <stop offset="0" style="stop-color:#eb1414;stop-opacity:1" />
      <stop offset="0.64" style="stop-color:#7e26ec;stop-opacity:1" />
      <stop offset="1" style="stop-color:#0f28ab;stop-opacity:1" />
    </linearGradient>
  </defs>
</svg>
